<svg width="177" height="61" viewBox="0 0 177 61" fill="none" xmlns="http://www.w3.org/2000/svg">
<rect x="0.91301" y="0.916992" width="174.874" height="59.1464" rx="3.5" stroke="white" stroke-opacity="0.05"/>
<path d="M63.6703 41.7793H61.0208L65.8448 28.0765H68.9092L73.74 41.7793H71.0904L67.4306 30.8867H67.3235L63.6703 41.7793ZM63.7573 36.4066H70.9834V38.4004H63.7573V36.4066ZM74.7783 45.6332V31.5022H77.1603V33.2017H77.3008C77.4257 32.9519 77.6019 32.6865 77.8294 32.4055C78.0568 32.12 78.3646 31.8769 78.7527 31.6762C79.1407 31.471 79.6359 31.3684 80.238 31.3684C81.032 31.3684 81.7479 31.5714 82.3858 31.9773C83.0281 32.3787 83.5366 32.9742 83.9113 33.7637C84.2904 34.5488 84.48 35.5122 84.48 36.6541C84.48 37.7827 84.2949 38.7417 83.9247 39.5312C83.5545 40.3207 83.0504 40.9229 82.4126 41.3377C81.7747 41.7525 81.0521 41.9599 80.2447 41.9599C79.6559 41.9599 79.1675 41.8618 78.7794 41.6656C78.3914 41.4693 78.0791 41.2329 77.8427 40.9563C77.6108 40.6753 77.4301 40.4099 77.3008 40.1601H77.2004V45.6332H74.7783ZM77.1536 36.6408C77.1536 37.3054 77.2473 37.8875 77.4346 38.3871C77.6264 38.8866 77.9007 39.2769 78.2576 39.5579C78.6189 39.8345 79.056 39.9728 79.569 39.9728C80.1042 39.9728 80.5525 39.83 80.9138 39.5446C81.2751 39.2546 81.5472 38.8599 81.7301 38.3603C81.9174 37.8563 82.0111 37.2831 82.0111 36.6408C82.0111 36.0029 81.9197 35.4364 81.7368 34.9413C81.5539 34.4462 81.2818 34.0581 80.9205 33.7771C80.5592 33.4961 80.1087 33.3556 79.569 33.3556C79.0515 33.3556 78.6122 33.4916 78.2509 33.7637C77.8896 34.0358 77.6152 34.4172 77.4279 34.9078C77.245 35.3985 77.1536 35.9761 77.1536 36.6408ZM85.8947 45.6332V31.5022H88.2766V33.2017H88.4172C88.542 32.9519 88.7182 32.6865 88.9457 32.4055C89.1732 32.12 89.481 31.8769 89.8691 31.6762C90.2571 31.471 90.7522 31.3684 91.3544 31.3684C92.1484 31.3684 92.8643 31.5714 93.5022 31.9773C94.1445 32.3787 94.653 32.9742 95.0277 33.7637C95.4068 34.5488 95.5964 35.5122 95.5964 36.6541C95.5964 37.7827 95.4113 38.7417 95.0411 39.5312C94.6708 40.3207 94.1668 40.9229 93.5289 41.3377C92.8911 41.7525 92.1685 41.9599 91.3611 41.9599C90.7723 41.9599 90.2839 41.8618 89.8958 41.6656C89.5078 41.4693 89.1955 41.2329 88.9591 40.9563C88.7272 40.6753 88.5465 40.4099 88.4172 40.1601H88.3168V45.6332H85.8947ZM88.27 36.6408C88.27 37.3054 88.3636 37.8875 88.551 38.3871C88.7428 38.8866 89.0171 39.2769 89.3739 39.5579C89.7352 39.8345 90.1724 39.9728 90.6853 39.9728C91.2206 39.9728 91.6689 39.83 92.0302 39.5446C92.3915 39.2546 92.6636 38.8599 92.8465 38.3603C93.0338 37.8563 93.1275 37.2831 93.1275 36.6408C93.1275 36.0029 93.036 35.4364 92.8532 34.9413C92.6703 34.4462 92.3982 34.0581 92.0369 33.7771C91.6756 33.4961 91.2251 33.3556 90.6853 33.3556C90.1679 33.3556 89.7286 33.4916 89.3672 33.7637C89.0059 34.0358 88.7316 34.4172 88.5443 34.9078C88.3614 35.3985 88.27 35.9761 88.27 36.6408ZM109.148 34.2187L106.94 34.4596C106.877 34.2365 106.768 34.0269 106.612 33.8306C106.46 33.6344 106.255 33.476 105.996 33.3556C105.738 33.2351 105.421 33.1749 105.046 33.1749C104.542 33.1749 104.119 33.2842 103.775 33.5028C103.436 33.7213 103.269 34.0046 103.273 34.3525C103.269 34.6514 103.378 34.8945 103.601 35.0818C103.829 35.2691 104.203 35.423 104.725 35.5435L106.478 35.9181C107.451 36.1278 108.173 36.4601 108.646 36.9151C109.123 37.3701 109.364 37.9655 109.369 38.7015C109.364 39.3483 109.175 39.9193 108.8 40.4144C108.43 40.905 107.914 41.2886 107.254 41.5652C106.594 41.8417 105.836 41.98 104.979 41.98C103.722 41.98 102.709 41.7168 101.942 41.1905C101.175 40.6597 100.717 39.9215 100.57 38.9758L102.932 38.7484C103.039 39.2123 103.267 39.5624 103.615 39.7988C103.962 40.0352 104.415 40.1534 104.973 40.1534C105.548 40.1534 106.01 40.0352 106.358 39.7988C106.71 39.5624 106.886 39.2702 106.886 38.9223C106.886 38.6279 106.773 38.3848 106.545 38.193C106.322 38.0012 105.974 37.854 105.501 37.7514L103.748 37.3834C102.763 37.1783 102.033 36.8326 101.56 36.3464C101.088 35.8557 100.853 35.2357 100.858 34.4863C100.853 33.8529 101.025 33.3043 101.373 32.8404C101.725 32.372 102.214 32.0107 102.838 31.7565C103.467 31.4978 104.192 31.3684 105.013 31.3684C106.217 31.3684 107.165 31.6249 107.856 32.1378C108.552 32.6508 108.983 33.3444 109.148 34.2187ZM115.838 31.5022V33.3756H109.93V31.5022H115.838ZM111.389 29.04H113.811V38.6881C113.811 39.0138 113.86 39.2636 113.958 39.4375C114.061 39.607 114.195 39.723 114.36 39.7854C114.525 39.8479 114.707 39.8791 114.908 39.8791C115.06 39.8791 115.198 39.868 115.323 39.8457C115.452 39.8234 115.551 39.8033 115.617 39.7854L116.026 41.6789C115.896 41.7235 115.711 41.7726 115.47 41.8261C115.234 41.8797 114.944 41.9109 114.6 41.9198C113.994 41.9376 113.447 41.8462 112.961 41.6455C112.475 41.4403 112.089 41.1236 111.804 40.6954C111.523 40.2672 111.384 39.7319 111.389 39.0896V29.04ZM121.577 41.98C120.573 41.98 119.703 41.7592 118.967 41.3176C118.231 40.876 117.661 40.2583 117.255 39.4643C116.853 38.6703 116.652 37.7425 116.652 36.6809C116.652 35.6193 116.853 34.6893 117.255 33.8908C117.661 33.0924 118.231 32.4724 118.967 32.0308C119.703 31.5892 120.573 31.3684 121.577 31.3684C122.58 31.3684 123.45 31.5892 124.186 32.0308C124.922 32.4724 125.491 33.0924 125.892 33.8908C126.298 34.6893 126.501 35.6193 126.501 36.6809C126.501 37.7425 126.298 38.6703 125.892 39.4643C125.491 40.2583 124.922 40.876 124.186 41.3176C123.45 41.7592 122.58 41.98 121.577 41.98ZM121.59 40.0397C122.134 40.0397 122.589 39.8903 122.955 39.5914C123.321 39.2881 123.593 38.8822 123.771 38.3737C123.954 37.8652 124.046 37.2987 124.046 36.6742C124.046 36.0453 123.954 35.4766 123.771 34.9681C123.593 34.4551 123.321 34.047 122.955 33.7436C122.589 33.4403 122.134 33.2887 121.59 33.2887C121.033 33.2887 120.569 33.4403 120.199 33.7436C119.833 34.047 119.558 34.4551 119.376 34.9681C119.197 35.4766 119.108 36.0453 119.108 36.6742C119.108 37.2987 119.197 37.8652 119.376 38.3737C119.558 38.8822 119.833 39.2881 120.199 39.5914C120.569 39.8903 121.033 40.0397 121.59 40.0397ZM127.898 41.7793V31.5022H130.246V33.2151H130.353C130.54 32.6218 130.862 32.1646 131.317 31.8434C131.776 31.5178 132.3 31.355 132.889 31.355C133.023 31.355 133.172 31.3617 133.337 31.3751C133.507 31.384 133.647 31.3996 133.759 31.4219V33.65C133.656 33.6143 133.493 33.5831 133.27 33.5563C133.052 33.5251 132.84 33.5095 132.635 33.5095C132.193 33.5095 131.796 33.6054 131.444 33.7972C131.096 33.9845 130.821 34.2454 130.621 34.58C130.42 34.9145 130.32 35.3004 130.32 35.7375V41.7793H127.898ZM138.835 41.98C137.805 41.98 136.915 41.7659 136.165 41.3377C135.42 40.905 134.847 40.2939 134.446 39.5044C134.044 38.7104 133.844 37.776 133.844 36.701C133.844 35.6438 134.044 34.716 134.446 33.9176C134.852 33.1147 135.418 32.4902 136.145 32.0442C136.872 31.5937 137.727 31.3684 138.708 31.3684C139.341 31.3684 139.939 31.471 140.501 31.6762C141.067 31.8769 141.567 32.1891 142 32.6129C142.437 33.0366 142.78 33.5764 143.03 34.2321C143.28 34.8833 143.405 35.6594 143.405 36.5605V37.3031H134.981V35.6706H141.083C141.079 35.2067 140.978 34.7941 140.782 34.4328C140.586 34.067 140.311 33.7793 139.959 33.5697C139.611 33.36 139.205 33.2552 138.741 33.2552C138.246 33.2552 137.811 33.3756 137.437 33.6165C137.062 33.8529 136.77 34.1652 136.56 34.5532C136.355 34.9368 136.25 35.3584 136.246 35.8178V37.2429C136.246 37.8406 136.355 38.3536 136.574 38.7818C136.792 39.2056 137.098 39.5312 137.49 39.7587C137.883 39.9817 138.342 40.0932 138.868 40.0932C139.221 40.0932 139.54 40.0441 139.825 39.946C140.111 39.8434 140.358 39.694 140.568 39.4977C140.778 39.3015 140.936 39.0584 141.043 38.7684L143.304 39.0227C143.162 39.6204 142.89 40.1423 142.488 40.5883C142.091 41.0299 141.583 41.3734 140.963 41.6187C140.343 41.8596 139.633 41.98 138.835 41.98Z" fill="white"/>
<path d="M67.6244 24.417H65.0705V16.8805H67.6759C68.4241 16.8805 69.0669 17.0313 69.6042 17.3331C70.1439 17.6324 70.5585 18.063 70.848 18.6248C71.1375 19.1866 71.2822 19.8588 71.2822 20.6414C71.2822 21.4264 71.1363 22.1011 70.8443 22.6653C70.5548 23.2296 70.1365 23.6626 69.5895 23.9644C69.0448 24.2661 68.3898 24.417 67.6244 24.417ZM66.4357 23.2357H67.5581C68.0831 23.2357 68.521 23.1401 68.8719 22.9487C69.2227 22.7549 69.4864 22.4666 69.6631 22.0839C69.8397 21.6987 69.928 21.2179 69.928 20.6414C69.928 20.0648 69.8397 19.5865 69.6631 19.2062C69.4864 18.8235 69.2251 18.5377 68.8792 18.3488C68.5358 18.1574 68.1089 18.0617 67.5986 18.0617H66.4357V23.2357ZM74.6234 24.5274C74.0714 24.5274 73.593 24.406 73.1882 24.1631C72.7834 23.9202 72.4694 23.5804 72.2462 23.1437C72.0254 22.707 71.915 22.1968 71.915 21.6129C71.915 21.029 72.0254 20.5175 72.2462 20.0783C72.4694 19.6392 72.7834 19.2982 73.1882 19.0553C73.593 18.8124 74.0714 18.691 74.6234 18.691C75.1754 18.691 75.6538 18.8124 76.0586 19.0553C76.4634 19.2982 76.7762 19.6392 76.997 20.0783C77.2202 20.5175 77.3318 21.029 77.3318 21.6129C77.3318 22.1968 77.2202 22.707 76.997 23.1437C76.7762 23.5804 76.4634 23.9202 76.0586 24.1631C75.6538 24.406 75.1754 24.5274 74.6234 24.5274ZM74.6308 23.4602C74.9301 23.4602 75.1803 23.378 75.3815 23.2137C75.5826 23.0468 75.7323 22.8236 75.8304 22.5439C75.931 22.2642 75.9813 21.9527 75.9813 21.6092C75.9813 21.2633 75.931 20.9505 75.8304 20.6708C75.7323 20.3887 75.5826 20.1642 75.3815 19.9974C75.1803 19.8306 74.9301 19.7471 74.6308 19.7471C74.3241 19.7471 74.069 19.8306 73.8653 19.9974C73.6642 20.1642 73.5133 20.3887 73.4127 20.6708C73.3146 20.9505 73.2655 21.2633 73.2655 21.6092C73.2655 21.9527 73.3146 22.2642 73.4127 22.5439C73.5133 22.8236 73.6642 23.0468 73.8653 23.2137C74.069 23.378 74.3241 23.4602 74.6308 23.4602ZM79.1044 24.417L77.5073 18.7646H78.8652L79.8588 22.7389H79.9103L80.926 18.7646H82.2692L83.2848 22.7169H83.34L84.3189 18.7646H85.6805L84.0797 24.417H82.6924L81.6325 20.5972H81.5553L80.4954 24.417H79.1044ZM87.58 21.105V24.417H86.2479V18.7646H87.5212V19.7251H87.5874C87.7174 19.4086 87.9247 19.1571 88.2093 18.9707C88.4963 18.7842 88.8508 18.691 89.2728 18.691C89.6629 18.691 90.0027 18.7744 90.2922 18.9412C90.5841 19.1081 90.8098 19.3497 90.9693 19.6662C91.1312 19.9827 91.2109 20.3666 91.2085 20.818V24.417H89.8763V21.0241C89.8763 20.6463 89.7782 20.3507 89.5819 20.1372C89.3881 19.9238 89.1195 19.8171 88.776 19.8171C88.543 19.8171 88.3357 19.8686 88.1541 19.9716C87.975 20.0722 87.834 20.2182 87.7309 20.4095C87.6303 20.6009 87.58 20.8327 87.58 21.105ZM93.5321 16.8805V24.417H92.2V16.8805H93.5321ZM97.0049 24.5274C96.4529 24.5274 95.9745 24.406 95.5697 24.1631C95.1649 23.9202 94.8509 23.5804 94.6276 23.1437C94.4068 22.707 94.2964 22.1968 94.2964 21.6129C94.2964 21.029 94.4068 20.5175 94.6276 20.0783C94.8509 19.6392 95.1649 19.2982 95.5697 19.0553C95.9745 18.8124 96.4529 18.691 97.0049 18.691C97.5568 18.691 98.0352 18.8124 98.44 19.0553C98.8448 19.2982 99.1576 19.6392 99.3784 20.0783C99.6017 20.5175 99.7133 21.029 99.7133 21.6129C99.7133 22.1968 99.6017 22.707 99.3784 23.1437C99.1576 23.5804 98.8448 23.9202 98.44 24.1631C98.0352 24.406 97.5568 24.5274 97.0049 24.5274ZM97.0122 23.4602C97.3115 23.4602 97.5618 23.378 97.7629 23.2137C97.9641 23.0468 98.1137 22.8236 98.2119 22.5439C98.3125 22.2642 98.3628 21.9527 98.3628 21.6092C98.3628 21.2633 98.3125 20.9505 98.2119 20.6708C98.1137 20.3887 97.9641 20.1642 97.7629 19.9974C97.5618 19.8306 97.3115 19.7471 97.0122 19.7471C96.7056 19.7471 96.4504 19.8306 96.2468 19.9974C96.0456 20.1642 95.8947 20.3887 95.7942 20.6708C95.696 20.9505 95.647 21.2633 95.647 21.6092C95.647 21.9527 95.696 22.2642 95.7942 22.5439C95.8947 22.8236 96.0456 23.0468 96.2468 23.2137C96.4504 23.378 96.7056 23.4602 97.0122 23.4602ZM102.108 24.5311C101.75 24.5311 101.427 24.4673 101.14 24.3397C100.855 24.2097 100.63 24.0183 100.463 23.7656C100.298 23.513 100.216 23.2014 100.216 22.8309C100.216 22.512 100.275 22.2483 100.393 22.0397C100.511 21.8312 100.671 21.6644 100.875 21.5393C101.079 21.4142 101.308 21.3197 101.563 21.2559C101.821 21.1897 102.087 21.1418 102.362 21.1124C102.693 21.0781 102.962 21.0474 103.168 21.0204C103.374 20.991 103.523 20.9468 103.617 20.8879C103.712 20.8266 103.76 20.7321 103.76 20.6046V20.5825C103.76 20.3053 103.678 20.0906 103.514 19.9385C103.349 19.7864 103.112 19.7103 102.803 19.7103C102.477 19.7103 102.218 19.7815 102.027 19.9238C101.838 20.0661 101.71 20.2341 101.644 20.4279L100.4 20.2513C100.498 19.9078 100.66 19.6208 100.886 19.3902C101.112 19.1571 101.388 18.9829 101.714 18.8676C102.04 18.7499 102.401 18.691 102.796 18.691C103.068 18.691 103.339 18.7229 103.609 18.7867C103.879 18.8505 104.126 18.956 104.349 19.1032C104.572 19.2479 104.751 19.4454 104.886 19.6956C105.024 19.9459 105.092 20.2587 105.092 20.634V24.417H103.812V23.6405H103.767C103.686 23.7975 103.572 23.9447 103.425 24.0821C103.28 24.217 103.098 24.3262 102.877 24.4096C102.659 24.4906 102.402 24.5311 102.108 24.5311ZM102.454 23.5522C102.721 23.5522 102.953 23.4995 103.149 23.394C103.345 23.286 103.496 23.1437 103.602 22.9671C103.71 22.7905 103.764 22.5979 103.764 22.3893V21.7233C103.722 21.7576 103.651 21.7895 103.55 21.819C103.452 21.8484 103.342 21.8742 103.219 21.8962C103.096 21.9183 102.975 21.9379 102.855 21.9551C102.735 21.9723 102.63 21.987 102.542 21.9993C102.343 22.0263 102.165 22.0704 102.008 22.1317C101.851 22.1931 101.728 22.2789 101.637 22.3893C101.546 22.4973 101.501 22.6371 101.501 22.8089C101.501 23.0542 101.59 23.2394 101.769 23.3645C101.948 23.4896 102.176 23.5522 102.454 23.5522ZM108.167 24.5164C107.723 24.5164 107.325 24.4023 106.974 24.1741C106.623 23.946 106.346 23.6148 106.143 23.1805C105.939 22.7463 105.837 22.2188 105.837 21.5982C105.837 20.9701 105.94 20.4402 106.146 20.0084C106.355 19.5742 106.636 19.2467 106.989 19.0259C107.342 18.8026 107.736 18.691 108.17 18.691C108.501 18.691 108.774 18.7474 108.987 18.8603C109.201 18.9707 109.37 19.1044 109.495 19.2614C109.62 19.4159 109.717 19.5619 109.786 19.6993H109.841V16.8805H111.177V24.417H109.867V23.5264H109.786C109.717 23.6638 109.618 23.8098 109.488 23.9644C109.358 24.1165 109.186 24.2465 108.973 24.3544C108.759 24.4624 108.49 24.5164 108.167 24.5164ZM108.538 23.4234C108.82 23.4234 109.061 23.3474 109.26 23.1953C109.458 23.0407 109.609 22.826 109.712 22.5513C109.815 22.2765 109.867 21.9563 109.867 21.5908C109.867 21.2253 109.815 20.9076 109.712 20.6377C109.612 20.3678 109.462 20.1581 109.263 20.0084C109.067 19.8588 108.825 19.7839 108.538 19.7839C108.241 19.7839 107.994 19.8612 107.795 20.0158C107.596 20.1703 107.447 20.3838 107.346 20.6561C107.245 20.9284 107.195 21.24 107.195 21.5908C107.195 21.9441 107.245 22.2593 107.346 22.5365C107.449 22.8113 107.6 23.0284 107.799 23.1879C108 23.3449 108.246 23.4234 108.538 23.4234ZM116.907 24.5274C116.355 24.5274 115.877 24.406 115.472 24.1631C115.067 23.9202 114.753 23.5804 114.53 23.1437C114.309 22.707 114.199 22.1968 114.199 21.6129C114.199 21.029 114.309 20.5175 114.53 20.0783C114.753 19.6392 115.067 19.2982 115.472 19.0553C115.877 18.8124 116.355 18.691 116.907 18.691C117.459 18.691 117.937 18.8124 118.342 19.0553C118.747 19.2982 119.06 19.6392 119.281 20.0783C119.504 20.5175 119.615 21.029 119.615 21.6129C119.615 22.1968 119.504 22.707 119.281 23.1437C119.06 23.5804 118.747 23.9202 118.342 24.1631C117.937 24.406 117.459 24.5274 116.907 24.5274ZM116.914 23.4602C117.214 23.4602 117.464 23.378 117.665 23.2137C117.866 23.0468 118.016 22.8236 118.114 22.5439C118.215 22.2642 118.265 21.9527 118.265 21.6092C118.265 21.2633 118.215 20.9505 118.114 20.6708C118.016 20.3887 117.866 20.1642 117.665 19.9974C117.464 19.8306 117.214 19.7471 116.914 19.7471C116.608 19.7471 116.353 19.8306 116.149 19.9974C115.948 20.1642 115.797 20.3887 115.696 20.6708C115.598 20.9505 115.549 21.2633 115.549 21.6092C115.549 21.9527 115.598 22.2642 115.696 22.5439C115.797 22.8236 115.948 23.0468 116.149 23.2137C116.353 23.378 116.608 23.4602 116.914 23.4602ZM121.715 21.105V24.417H120.383V18.7646H121.657V19.7251H121.723C121.853 19.4086 122.06 19.1571 122.345 18.9707C122.632 18.7842 122.986 18.691 123.408 18.691C123.798 18.691 124.138 18.7744 124.428 18.9412C124.72 19.1081 124.945 19.3497 125.105 19.6662C125.267 19.9827 125.346 20.3666 125.344 20.818V24.417H124.012V21.0241C124.012 20.6463 123.914 20.3507 123.717 20.1372C123.524 19.9238 123.255 19.8171 122.911 19.8171C122.678 19.8171 122.471 19.8686 122.29 19.9716C122.11 20.0722 121.969 20.2182 121.866 20.4095C121.766 20.6009 121.715 20.8327 121.715 21.105ZM131.366 18.7646V19.795H128.116V18.7646H131.366ZM128.919 17.4104H130.251V22.7169C130.251 22.8959 130.278 23.0333 130.332 23.129C130.388 23.2222 130.462 23.286 130.552 23.3204C130.643 23.3547 130.744 23.3719 130.854 23.3719C130.938 23.3719 131.014 23.3658 131.082 23.3535C131.153 23.3412 131.207 23.3302 131.244 23.3204L131.469 24.3618C131.398 24.3863 131.296 24.4133 131.163 24.4428C131.033 24.4722 130.874 24.4894 130.685 24.4943C130.351 24.5041 130.051 24.4538 129.783 24.3434C129.516 24.2305 129.304 24.0564 129.147 23.8208C128.992 23.5853 128.916 23.2909 128.919 22.9377V17.4104ZM133.571 21.105V24.417H132.239V16.8805H133.541V19.7251H133.607C133.74 19.4061 133.945 19.1547 134.222 18.9707C134.502 18.7842 134.857 18.691 135.289 18.691C135.682 18.691 136.024 18.7732 136.316 18.9376C136.608 19.1019 136.834 19.3423 136.993 19.6588C137.155 19.9753 137.236 20.3617 137.236 20.818V24.417H135.904V21.0241C135.904 20.6438 135.806 20.3482 135.609 20.1372C135.416 19.9238 135.143 19.8171 134.792 19.8171C134.557 19.8171 134.346 19.8686 134.159 19.9716C133.975 20.0722 133.831 20.2182 133.725 20.4095C133.622 20.6009 133.571 20.8327 133.571 21.105ZM140.733 24.5274C140.167 24.5274 139.677 24.4096 139.265 24.1741C138.855 23.9361 138.54 23.6 138.319 23.1658C138.099 22.7291 137.988 22.2152 137.988 21.6239C137.988 21.0425 138.099 20.5322 138.319 20.0931C138.543 19.6515 138.854 19.308 139.254 19.0627C139.654 18.8149 140.124 18.691 140.664 18.691C141.012 18.691 141.341 18.7474 141.65 18.8603C141.961 18.9707 142.236 19.1424 142.474 19.3755C142.715 19.6085 142.903 19.9054 143.041 20.266C143.178 20.6242 143.247 21.0511 143.247 21.5466V21.9551H138.614V21.0572H141.97C141.967 20.8021 141.912 20.5751 141.804 20.3764C141.696 20.1752 141.546 20.017 141.352 19.9017C141.16 19.7864 140.937 19.7287 140.682 19.7287C140.41 19.7287 140.17 19.795 139.964 19.9275C139.758 20.0575 139.598 20.2292 139.482 20.4427C139.369 20.6536 139.312 20.8855 139.309 21.1382V21.922C139.309 22.2507 139.369 22.5329 139.49 22.7684C139.61 23.0014 139.778 23.1805 139.994 23.3056C140.21 23.4283 140.462 23.4896 140.752 23.4896C140.946 23.4896 141.121 23.4627 141.278 23.4087C141.435 23.3523 141.571 23.2701 141.687 23.1621C141.802 23.0542 141.889 22.9205 141.948 22.761L143.192 22.9009C143.113 23.2296 142.964 23.5166 142.743 23.762C142.524 24.0048 142.245 24.1937 141.904 24.3287C141.563 24.4612 141.173 24.5274 140.733 24.5274Z" fill="white"/>
<path d="M53.4711 39.3254C53.0482 40.3128 52.5477 41.2217 51.9678 42.0574C51.1773 43.1965 50.5301 43.985 50.0313 44.4229C49.2581 45.1416 48.4297 45.5097 47.5426 45.5307C46.9057 45.5307 46.1377 45.3475 45.2437 44.9759C44.3467 44.6061 43.5224 44.4229 42.7687 44.4229C41.9783 44.4229 41.1305 44.6061 40.2237 44.9759C39.3156 45.3475 38.5839 45.5411 38.0246 45.5603C37.1739 45.597 36.326 45.2184 35.4796 44.4229C34.9394 43.9466 34.2637 43.1302 33.4542 41.9736C32.5857 40.7385 31.8718 39.3062 31.3124 37.6734C30.7133 35.9097 30.413 34.2018 30.413 32.5484C30.413 30.6544 30.8179 29.0208 31.6289 27.6519C32.2663 26.5523 33.1142 25.6849 34.1755 25.0482C35.2367 24.4114 36.3834 24.087 37.6183 24.0662C38.294 24.0662 39.1801 24.2775 40.2812 24.6927C41.3792 25.1093 42.0842 25.3205 42.3934 25.3205C42.6244 25.3205 43.4077 25.0735 44.7354 24.581C45.991 24.1243 47.0507 23.9352 47.9188 24.0097C50.2712 24.2016 52.0385 25.1389 53.2139 26.8276C51.11 28.1161 50.0693 29.9208 50.09 32.2359C50.109 34.0392 50.7562 35.5399 52.0282 36.7314C52.6046 37.2844 53.2484 37.7118 53.9647 38.0153C53.8093 38.4706 53.6454 38.9068 53.4711 39.3254V39.3254ZM48.0759 17.8662C48.0759 19.2796 47.565 20.5993 46.5467 21.8208C45.3179 23.273 43.8316 24.1121 42.2197 23.9797C42.1981 23.802 42.1873 23.6231 42.1873 23.4441C42.1873 22.0872 42.7717 20.6351 43.8095 19.4478C44.3276 18.8466 44.9865 18.3468 45.7856 17.948C46.583 17.5552 47.3372 17.338 48.0465 17.3008C48.0673 17.4897 48.0759 17.6787 48.0759 17.8662V17.8662Z" fill="white"/>
</svg>
