<svg width="188" height="61" viewBox="0 0 188 61" fill="none" xmlns="http://www.w3.org/2000/svg">
<rect x="0.5" y="0.916992" width="186.413" height="58.9612" rx="3.5" stroke="white" stroke-opacity="0.05"/>
<path d="M97.5755 22.5132C96.5798 22.5132 95.7404 22.1656 95.0766 21.4815C94.4182 20.8165 94.0506 19.8997 94.0671 18.9637C94.0671 17.9648 94.4072 17.1192 95.0766 16.4487C95.7376 15.7646 96.577 15.417 97.5728 15.417C98.5575 15.417 99.3969 15.7646 100.072 16.4487C100.741 17.1411 101.081 17.9867 101.081 18.9637C101.07 19.9653 100.73 20.811 100.072 21.4787C99.4106 22.1684 98.5712 22.5132 97.5755 22.5132ZM67.9476 22.5132C66.9738 22.5132 66.1289 22.1711 65.4376 21.4952C64.7519 20.8219 64.4035 19.9708 64.4035 18.9665C64.4035 17.9621 64.7519 17.111 65.4376 16.4378C66.1152 15.7618 66.96 15.4197 67.9476 15.4197C68.4303 15.4197 68.8994 15.5155 69.3493 15.7098C69.7909 15.8986 70.1502 16.1559 70.4163 16.4706L70.4822 16.55L69.7388 17.2779L69.662 17.1876C69.2423 16.6895 68.68 16.446 67.9366 16.446C67.2728 16.446 66.694 16.6813 66.2167 17.1466C65.7366 17.6145 65.4925 18.2276 65.4925 18.9692C65.4925 19.7108 65.7366 20.3239 66.2167 20.7918C66.694 21.2571 67.2728 21.4924 67.9366 21.4924C68.6443 21.4924 69.2395 21.2571 69.7031 20.7918C69.9774 20.5182 70.1475 20.135 70.2078 19.6506H67.8241V18.6271H71.231L71.2447 18.7202C71.2694 18.8926 71.2941 19.0705 71.2941 19.2347C71.2941 20.1788 71.0088 20.9423 70.4438 21.5061C69.8019 22.1738 68.9625 22.5132 67.9476 22.5132ZM107.341 22.3681H106.29L103.073 17.2314L103.1 18.1564V22.3654H102.049V15.5648H103.248L103.281 15.6168L106.307 20.4552L106.279 19.533V15.5648H107.341V22.3681ZM89.6809 22.3681H88.6166V16.5883H86.7705V15.5648H91.5243V16.5883H89.6782V22.3681H89.6809ZM85.9037 22.3681H84.8421V15.5648H85.9037V22.3681ZM79.9375 22.3681H78.876V16.5883H77.0299V15.5648H81.7836V16.5883H79.9375V22.3681ZM76.3578 22.3572H72.2871V15.5648H76.3578V16.5883H73.3514V18.4547H76.0643V19.4673H73.3514V21.3337H76.3578V22.3572ZM95.8556 20.7781C96.3301 21.2516 96.9062 21.4897 97.5755 21.4897C98.264 21.4897 98.8263 21.2571 99.2954 20.7781C99.7617 20.3129 99.9976 19.7026 99.9976 18.9665C99.9976 18.2303 99.7617 17.6173 99.2981 17.1548C98.8236 16.6813 98.2448 16.4432 97.5782 16.4432C96.8897 16.4432 96.3274 16.6759 95.8611 17.1548C95.3948 17.62 95.1588 18.2303 95.1588 18.9665C95.1588 19.7026 95.392 20.3156 95.8556 20.7781Z" fill="white"/>
<path fill-rule="evenodd" clip-rule="evenodd" d="M93.9685 31.8673C91.3763 31.8673 89.2751 33.8295 89.2751 36.5361C89.2751 39.2181 91.39 41.2049 93.9685 41.2049C96.5607 41.2049 98.6619 39.229 98.6619 36.5361C98.6619 33.8295 96.5607 31.8673 93.9685 31.8673ZM93.9685 39.3549C92.5504 39.3549 91.3297 38.1836 91.3297 36.5252C91.3297 34.8421 92.5531 33.6954 93.9685 33.6954C95.3867 33.6954 96.6074 34.8421 96.6074 36.5252C96.6101 38.1945 95.3867 39.3549 93.9685 39.3549ZM83.7286 31.8673C81.1364 31.8673 79.0352 33.8295 79.0352 36.5361C79.0352 39.2181 81.1501 41.2049 83.7286 41.2049C86.3208 41.2049 88.422 39.229 88.422 36.5361C88.422 33.8295 86.3181 31.8673 83.7286 31.8673ZM83.7286 39.3549C82.3105 39.3549 81.0898 38.1836 81.0898 36.5252C81.0898 34.8421 82.3132 33.6954 83.7286 33.6954C85.1468 33.6954 86.3675 34.8421 86.3675 36.5252C86.3675 38.1945 85.1468 39.3549 83.7286 39.3549ZM71.5439 33.2932V35.269H76.2976C76.1522 36.3774 75.7847 37.1957 75.2223 37.7567C74.5256 38.4518 73.4503 39.2071 71.5549 39.2071C68.6335 39.2071 66.3485 36.8536 66.3485 33.939C66.3485 31.0244 68.6335 28.6709 71.5549 28.6709C73.1321 28.6709 74.2815 29.2921 75.1346 30.0858L76.539 28.6846C75.354 27.5516 73.7768 26.6841 71.5658 26.6841C67.5582 26.6841 64.1952 29.9407 64.1952 33.9281C64.1952 37.9263 67.5555 41.172 71.5658 41.172C73.7301 41.172 75.354 40.466 76.6378 39.136C77.9462 37.8306 78.3604 35.9888 78.3604 34.5028C78.3604 34.0403 78.3248 33.6243 78.2507 33.2713H71.5411C71.5439 33.2685 71.5439 33.2932 71.5439 33.2932ZM121.383 34.8312C120.991 33.783 119.806 31.8564 117.375 31.8564C114.967 31.8564 112.964 33.7474 112.964 36.5252C112.964 39.1469 114.945 41.1939 117.608 41.1939C119.748 41.1939 120.993 39.8885 121.506 39.1223L119.918 38.0604C119.391 38.8404 118.659 39.3522 117.619 39.3522C116.569 39.3522 115.834 38.876 115.345 37.9373L121.602 35.3511C121.602 35.3539 121.383 34.8312 121.383 34.8312ZM115.002 36.3911C114.953 34.5876 116.407 33.6708 117.446 33.6708C118.267 33.6708 118.95 34.0731 119.183 34.6588L115.002 36.3911ZM109.919 40.9148H111.974V27.1986H109.919V40.9148ZM106.546 32.9045H106.471C106.008 32.3545 105.127 31.8564 104.003 31.8564C101.668 31.8564 99.5178 33.9062 99.5178 36.5389C99.5178 39.1606 101.657 41.1857 104.003 41.1857C105.114 41.1857 106.008 40.6849 106.471 40.1239H106.546V40.7944C106.546 42.576 105.591 43.5365 104.052 43.5365C102.793 43.5365 102.011 42.6334 101.693 41.8781L99.9073 42.6225C100.42 43.854 101.789 45.3783 104.049 45.3783C106.458 45.3783 108.499 43.9635 108.499 40.5125V32.1355H106.556V32.9045C106.559 32.9045 106.546 32.9045 106.546 32.9045ZM104.186 39.3549C102.768 39.3549 101.583 38.1726 101.583 36.5389C101.583 34.8914 102.768 33.6982 104.186 33.6982C105.591 33.6982 106.68 34.9051 106.68 36.5389C106.694 38.1726 105.594 39.3549 104.186 39.3549ZM131.003 27.1986H126.09V40.9148H128.144V35.7206H131.006C133.28 35.7206 135.515 34.0758 135.515 31.4651C135.515 28.8543 133.288 27.1986 131.003 27.1986ZM131.063 33.8049H128.142V29.0978H131.063C132.602 29.0978 133.472 30.3649 133.472 31.4514C133.472 32.5269 132.591 33.8049 131.063 33.8049ZM143.75 31.8427C142.258 31.8427 140.719 32.5023 140.082 33.939L141.904 34.6943C142.296 33.939 143.015 33.6818 143.775 33.6818C144.839 33.6818 145.914 34.3167 145.939 35.4497V35.5947C145.571 35.3867 144.765 35.0693 143.799 35.0693C141.832 35.0693 139.838 36.142 139.838 38.1535C139.838 39.9953 141.451 41.1775 143.248 41.1775C144.628 41.1775 145.387 40.5563 145.862 39.8365H145.936V40.8984H147.917V35.644C147.917 33.1974 146.095 31.8427 143.75 31.8427ZM143.492 39.3549C142.82 39.3549 141.879 39.0265 141.879 38.1836C141.879 37.1218 143.053 36.7195 144.054 36.7195C144.96 36.7195 145.387 36.9138 145.925 37.182C145.777 38.4135 144.735 39.3439 143.492 39.3549ZM155.142 32.1355L152.783 38.0851H152.709L150.265 32.1355H148.054L151.721 40.4523L149.631 45.0745H151.771L157.413 32.1355H155.142ZM136.648 40.9148H138.703V27.1986H136.648V40.9148Z" fill="white"/>
<path fill-rule="evenodd" clip-rule="evenodd" d="M30.5021 16.2599C30.1839 16.602 30.0001 17.1247 30.0001 17.8089V42.075C30.0001 42.7592 30.1839 43.2819 30.513 43.6103L30.5981 43.6842L44.2257 30.0884V29.7846L30.5871 16.186L30.5021 16.2599Z" fill="url(#paint0_linear_2007_1506)"/>
<path fill-rule="evenodd" clip-rule="evenodd" d="M48.7601 34.6339L44.2148 30.0992V29.7817L48.7601 25.2471L48.8588 25.3073L54.2352 28.3559C55.7741 29.2207 55.7741 30.6493 54.2352 31.525L48.8588 34.5737L48.7601 34.6339Z" fill="url(#paint1_linear_2007_1506)"/>
<path fill-rule="evenodd" clip-rule="evenodd" d="M48.8583 34.5741L44.2143 29.9409L30.5016 43.6216C31.0036 44.158 31.8458 44.2182 32.7866 43.6955L48.8583 34.5741Z" fill="url(#paint2_linear_2007_1506)"/>
<path fill-rule="evenodd" clip-rule="evenodd" d="M48.8583 25.3074L32.7866 16.1998C31.8458 15.6634 31.0009 15.7373 30.5016 16.2737L44.2143 29.9406L48.8583 25.3074Z" fill="url(#paint3_linear_2007_1506)"/>
<path opacity="0.2" fill-rule="evenodd" clip-rule="evenodd" d="M48.7599 34.4756L32.798 43.523C31.9065 44.0348 31.111 43.9992 30.598 43.534L30.513 43.6188L30.598 43.6927C31.111 44.1552 31.9065 44.1935 32.798 43.6818L48.8697 34.5741L48.7599 34.4756Z" fill="black"/>
<path opacity="0.12" fill-rule="evenodd" clip-rule="evenodd" d="M54.235 31.3667L48.7461 34.4756L48.8448 34.5741L54.2212 31.5255C54.992 31.0876 55.3706 30.5129 55.3706 29.9409C55.324 30.4664 54.9317 30.9644 54.235 31.3667Z" fill="black"/>
<path opacity="0.25" fill-rule="evenodd" clip-rule="evenodd" d="M32.7871 16.3584L54.2351 28.5147C54.9319 28.9061 55.3241 29.4178 55.3845 29.9405C55.3845 29.3686 55.006 28.7938 54.2351 28.356L32.7871 16.1997C31.2482 15.3212 30.0001 16.0546 30.0001 17.8088V17.9676C30.0001 16.2106 31.2482 15.4909 32.7871 16.3584Z" fill="white"/>
<defs>
<linearGradient id="paint0_linear_2007_1506" x1="43.0033" y1="17.5471" x2="21.181" y2="23.3752" gradientUnits="userSpaceOnUse">
<stop stop-color="#00A0FF"/>
<stop offset="0.00657" stop-color="#00A1FF"/>
<stop offset="0.2601" stop-color="#00BEFF"/>
<stop offset="0.5122" stop-color="#00D2FF"/>
<stop offset="0.7604" stop-color="#00DFFF"/>
<stop offset="1" stop-color="#00E3FF"/>
</linearGradient>
<linearGradient id="paint1_linear_2007_1506" x1="56.2421" y1="29.9405" x2="29.6262" y2="29.9405" gradientUnits="userSpaceOnUse">
<stop stop-color="#FFE000"/>
<stop offset="0.4087" stop-color="#FFBD00"/>
<stop offset="0.7754" stop-color="#FFA500"/>
<stop offset="1" stop-color="#FF9C00"/>
</linearGradient>
<linearGradient id="paint2_linear_2007_1506" x1="46.3331" y1="32.462" x2="28.8692" y2="61.9238" gradientUnits="userSpaceOnUse">
<stop stop-color="#FF3A44"/>
<stop offset="1" stop-color="#C31162"/>
</linearGradient>
<linearGradient id="paint3_linear_2007_1506" x1="27.0487" y1="8.18868" x2="34.84" y2="21.3468" gradientUnits="userSpaceOnUse">
<stop stop-color="#32A071"/>
<stop offset="0.0685" stop-color="#2DA771"/>
<stop offset="0.4762" stop-color="#15CF74"/>
<stop offset="0.8009" stop-color="#06E775"/>
<stop offset="1" stop-color="#00F076"/>
</linearGradient>
</defs>
</svg>
