<svg width="38" height="38" viewBox="0 0 38 38" fill="none" xmlns="http://www.w3.org/2000/svg">
<mask id="mask0_4001_1602" style="mask-type:luminance" maskUnits="userSpaceOnUse" x="0" y="0" width="38" height="38">
<path d="M38 0H0V38H38V0Z" fill="white"/>
<path d="M20.8555 19.0005C20.8555 20.0252 20.0247 20.856 19 20.856C17.9753 20.856 17.1445 20.0252 17.1445 19.0005C17.1445 17.9757 17.9753 17.145 19 17.145C20.0247 17.145 20.8555 17.9757 20.8555 19.0005Z" fill="white"/>
<path d="M28.2773 19.0005C28.2773 20.0252 27.4466 20.856 26.4219 20.856C25.3971 20.856 24.5664 20.0252 24.5664 19.0005C24.5664 17.9757 25.3971 17.145 26.4219 17.145C27.4466 17.145 28.2773 17.9757 28.2773 19.0005Z" fill="white"/>
<path d="M13.4336 19.0005C13.4336 20.0252 12.6029 20.856 11.5781 20.856C10.5534 20.856 9.72266 20.0252 9.72266 19.0005C9.72266 17.9757 10.5534 17.145 11.5781 17.145C12.6029 17.145 13.4336 17.9757 13.4336 19.0005Z" fill="white"/>
</mask>
<g mask="url(#mask0_4001_1602)">
<mask id="mask1_4001_1602" style="mask-type:luminance" maskUnits="userSpaceOnUse" x="0" y="0" width="38" height="39">
<path d="M0 0.000492096H38V38.0005H0V0.000492096Z" fill="white"/>
</mask>
<g mask="url(#mask1_4001_1602)">
<path d="M19 1.48438C9.3264 1.48438 1.48438 9.3264 1.48438 19C1.48438 22.4055 2.45731 25.5834 4.13888 28.2727L1.48438 36.5156L9.72733 33.8611C12.4166 35.5427 15.5945 36.5156 19 36.5156C28.6736 36.5156 36.5156 28.6736 36.5156 19C36.5156 9.3264 28.6736 1.48438 19 1.48438Z" stroke="#28272A" stroke-width="2.96875" stroke-miterlimit="10" stroke-linecap="round" stroke-linejoin="round"/>
<path d="M20.8555 19.0005C20.8555 20.0252 20.0247 20.856 19 20.856C17.9753 20.856 17.1445 20.0252 17.1445 19.0005C17.1445 17.9757 17.9753 17.145 19 17.145C20.0247 17.145 20.8555 17.9757 20.8555 19.0005Z" fill="#28272A"/>
<path d="M28.2773 19.0005C28.2773 20.0252 27.4466 20.856 26.4219 20.856C25.3971 20.856 24.5664 20.0252 24.5664 19.0005C24.5664 17.9757 25.3971 17.145 26.4219 17.145C27.4466 17.145 28.2773 17.9757 28.2773 19.0005Z" fill="#28272A"/>
<path d="M13.4336 19.0005C13.4336 20.0252 12.6029 20.856 11.5781 20.856C10.5534 20.856 9.72266 20.0252 9.72266 19.0005C9.72266 17.9757 10.5534 17.145 11.5781 17.145C12.6029 17.145 13.4336 17.9757 13.4336 19.0005Z" fill="#28272A"/>
</g>
</g>
</svg>
