<svg width="42" height="42" viewBox="0 0 42 42" fill="none" xmlns="http://www.w3.org/2000/svg">
<path d="M10.8762 35.6379C8.55076 36.9732 5.92953 37.4521 4.37735 37.6239C4.54919 36.0718 5.02808 33.4505 6.36194 31.1237C6.71125 30.5166 6.50138 29.7419 5.89431 29.3926C5.28161 29.0419 4.51116 29.2546 4.16325 29.8616C1.77442 34.028 1.74625 38.786 1.74625 38.9874C1.74625 39.6874 2.31388 40.255 3.01391 40.255C3.21533 40.255 7.97327 40.2269 12.1396 37.838C12.7467 37.4887 12.9566 36.7154 12.6073 36.107C12.2608 35.4999 11.4875 35.2886 10.8762 35.6379Z" fill="#28272A"/>
<path d="M42.0001 3.07759C42.0155 2.24516 41.7015 1.46485 41.1155 0.880319C40.531 0.295787 39.6859 0.00704255 38.9225 0C35.4125 0.0662 25.9445 1.07328 16.9863 9.11447C15.3891 8.49331 12.9819 7.57074 11.1551 7.80596C8.46766 8.15104 4.49707 11.8075 0.608175 15.7091C0.09266 16.226 -0.112982 16.9585 0.0602643 17.6683C0.232103 18.3811 0.753251 18.9402 1.45187 19.1642L7.63523 21.1502C7.16901 22.0009 6.70984 22.8714 6.26616 23.7897C5.70839 24.9447 5.94502 26.3321 6.85492 27.2392L14.7609 35.1451C15.3412 35.7268 16.1187 36.0339 16.9032 36.0339C17.3469 36.0339 17.7948 35.9367 18.2117 35.7353C19.1301 35.2916 20.0005 34.8324 20.8485 34.3676L22.8359 40.5496C23.0598 41.2482 23.619 41.7694 24.3331 41.9426C24.4979 41.982 24.6641 42.0018 24.8303 42.0018C25.3726 42.0018 25.8952 41.7891 26.2924 41.3933C30.1939 37.5044 33.8504 33.5352 34.1941 30.8492C34.4321 29.0054 33.5067 26.6124 32.8856 25.0151C40.9254 16.057 41.9339 6.58901 42.0001 3.07759ZM2.92658 16.9768C4.99005 14.9218 9.47193 10.5793 11.4776 10.3216C12.3721 10.2075 13.7763 10.6314 14.9623 11.061C12.8678 13.2259 10.834 15.8204 8.9381 18.9064L2.92658 16.9768ZM17.1089 33.4521C16.93 33.5394 16.7004 33.5 16.5539 33.3535L8.64654 25.4461C8.50146 25.3011 8.46062 25.0729 8.54935 24.8912C18.3962 4.49455 34.3237 2.62405 38.9718 2.53673H38.983C39.1506 2.53673 39.2605 2.61138 39.3253 2.67617C39.3788 2.72969 39.4704 2.84801 39.4676 3.03111C39.3774 7.67919 37.5055 23.6066 17.1089 33.4521ZM31.6799 30.5252C31.4221 32.5295 27.0797 37.0128 25.0247 39.0749L23.0922 33.0648C26.1811 31.1689 28.7756 29.1336 30.9404 27.0392C31.3714 28.2237 31.7954 29.6252 31.6799 30.5252Z" fill="#28272A"/>
<path d="M32.4489 17.0769C34.5223 15.0021 34.5223 11.6273 32.4489 9.5526C30.4376 7.54407 26.9332 7.54407 24.9247 9.5526C23.9204 10.5569 23.3669 11.8935 23.3669 13.3147C23.3669 14.7359 23.9218 16.0726 24.9247 17.0769C25.9289 18.0811 27.2656 18.6347 28.6868 18.6347C30.108 18.6347 31.4433 18.0811 32.4489 17.0769ZM30.6545 15.2838C29.6023 16.3374 27.7671 16.3374 26.7177 15.2838C26.1909 14.7585 25.9008 14.0584 25.9008 13.3147C25.9008 12.571 26.1909 11.8724 26.7177 11.3456C27.2431 10.8203 27.9417 10.5301 28.6854 10.5301C29.4277 10.5301 30.1277 10.8203 30.6531 11.3456C31.7405 12.4316 31.7405 14.1979 30.6545 15.2838Z" fill="#28272A"/>
</svg>
