<svg width="42" height="42" viewBox="0 0 42 42" fill="none" xmlns="http://www.w3.org/2000/svg">
<path d="M33.6428 28.4261L32.6903 29.3643L32.6903 29.3643L33.6428 28.4261ZM9.15712 28.4261L10.1097 29.3643L10.1097 29.3643L9.15712 28.4261ZM21.4003 0.663189C16.3112 0.663189 12.1731 4.80132 12.1731 9.89036H14.847C14.847 6.27808 17.788 3.3371 21.4003 3.3371V0.663189ZM30.6274 9.89036C30.6274 4.80132 26.4893 0.663189 21.4003 0.663189V3.3371C25.0125 3.3371 27.9535 6.27808 27.9535 9.89036H30.6274ZM21.4003 19.1175C26.4893 19.1175 30.6274 14.9794 30.6274 9.89036H27.9535C27.9535 13.5026 25.0125 16.4436 21.4003 16.4436V19.1175ZM12.1731 9.89036C12.1731 14.9794 16.3112 19.1175 21.4003 19.1175V16.4436C17.788 16.4436 14.847 13.5026 14.847 9.89036H12.1731ZM34.5954 27.488C31.6537 24.5011 27.7407 22.8474 23.5866 22.8474V25.5213C27.0143 25.5213 30.244 26.8804 32.6903 29.3643L34.5954 27.488ZM39.1369 38.5435C39.1369 34.3882 37.5211 30.4587 34.5954 27.488L32.6903 29.3643C35.126 31.8375 36.463 35.094 36.463 38.5435H39.1369ZM36.7066 40.9738C38.0488 40.9738 39.1369 39.8857 39.1369 38.5435H36.463C36.463 38.4089 36.5721 38.2998 36.7066 38.2998V40.9738ZM6.09331 40.9738H36.7066V38.2998H6.09331V40.9738ZM3.66302 38.5435C3.66302 39.8857 4.75112 40.9738 6.09331 40.9738V38.2998C6.22787 38.2998 6.33693 38.4089 6.33693 38.5435H3.66302ZM8.20457 27.488C5.27878 30.4587 3.66302 34.3882 3.66302 38.5435H6.33693C6.33693 35.094 7.6739 31.8375 10.1097 29.3643L8.20457 27.488ZM19.2133 22.8474C15.0593 22.8474 11.1462 24.5011 8.20457 27.488L10.1097 29.3643C12.556 26.8804 15.7857 25.5213 19.2133 25.5213V22.8474ZM23.5866 22.8474H19.2133V25.5213H23.5866V22.8474Z" fill="#28272A"/>
</svg>
