<svg width="38" height="38" viewBox="0 0 38 38" fill="none" xmlns="http://www.w3.org/2000/svg">
<g clip-path="url(#clip0_4001_249)">
<path d="M32.9427 14.6151L10.4989 0.780358C8.87513 -0.219297 6.91197 -0.260859 5.24731 0.669178C3.58266 1.59907 2.58887 3.29282 2.58887 5.19957V32.7431C2.58887 35.6262 4.91192 37.9844 7.76712 37.9999C7.77491 37.9999 7.78271 38 7.79035 38C8.68261 37.9999 9.61242 37.7203 10.4809 37.1904C11.1795 36.7641 11.4003 35.8523 10.974 35.1537C10.5478 34.455 9.6358 34.2343 8.9374 34.6605C8.5312 34.9083 8.1345 35.0365 7.78308 35.0364C6.70579 35.0305 5.55235 34.1077 5.55235 32.7432V5.19965C5.55235 4.38168 5.97867 3.6553 6.69265 3.25637C7.40671 2.85745 8.24873 2.87526 8.94438 3.30358L31.3882 17.1383C32.0628 17.5537 32.4488 18.2462 32.4472 19.0384C32.4456 19.8306 32.0567 20.5215 31.3785 20.9355L15.1515 30.871C14.4535 31.2983 14.2341 32.2106 14.6615 32.9085C15.0887 33.6064 16.001 33.8258 16.6989 33.3984L32.924 23.4641C34.4775 22.5164 35.4071 20.8643 35.4108 19.0444C35.4146 17.2247 34.4916 15.5687 32.9427 14.6151Z" fill="#28272A"/>
</g>
<defs>
<clipPath id="clip0_4001_249">
<rect width="38" height="38" fill="white"/>
</clipPath>
</defs>
</svg>
