<svg width="52" height="34" viewBox="0 0 52 34" fill="none" xmlns="http://www.w3.org/2000/svg">
<path opacity="0.15" d="M45.7441 23.6236C47.1005 23.6356 48.4224 23.1965 49.5019 22.3753C50.5815 21.554 51.3575 20.3973 51.7079 19.0869C52.091 17.6281 52.098 16.096 51.7282 14.6338C51.3584 13.1716 50.6238 11.8271 49.5933 10.7258C48.5627 9.62462 47.2697 8.8027 45.8352 8.33691C44.4006 7.87112 42.8714 7.77667 41.3905 8.06239C40.7182 5.81513 39.2831 3.87274 37.3325 2.56991C35.3819 1.26708 33.038 0.685395 30.7046 0.925092C28.3713 1.16479 26.1945 2.21085 24.5496 3.88304C22.9046 5.55522 21.8944 7.74881 21.693 10.0858C21.5354 10.0858 21.3778 10.0858 21.2159 10.0858C20.317 10.0868 19.4274 10.2667 18.5987 10.615C17.7701 10.9633 17.019 11.4731 16.3894 12.1146C15.7598 12.7562 15.2642 13.5166 14.9314 14.3516C14.5987 15.1866 14.4354 16.0795 14.4512 16.9782C14.498 18.7674 15.2441 20.467 16.5294 21.7125C17.8147 22.958 19.5369 23.6502 21.3266 23.6406L45.7441 23.6236Z" fill="#8C8D92"/>
<path d="M39.6903 33.1273C41.4045 33.137 43.0735 32.5776 44.4357 31.5369C45.7979 30.4962 46.7762 29.033 47.2175 27.3765C47.7028 25.528 47.7116 23.5865 47.2429 21.7337C46.7743 19.8808 45.8436 18.177 44.5378 16.7814C43.232 15.3859 41.5937 14.3441 39.7761 13.7535C37.9584 13.1629 36.0207 13.0427 34.144 13.4042C33.2861 10.5631 31.4661 8.10908 28.9963 6.46342C26.5264 4.81776 23.5608 4.08304 20.6084 4.38533C17.656 4.68763 14.9008 6.0081 12.8157 8.12013C10.7306 10.2322 9.44568 13.0041 9.18133 15.9601C8.97686 15.9601 8.77665 15.9346 8.57218 15.9346C7.43302 15.9361 6.30556 16.1643 5.25551 16.606C4.20546 17.0477 3.25385 17.694 2.45611 18.5072C1.65837 19.3204 1.03049 20.2842 0.609043 21.3426C0.1876 22.4009 -0.0189831 23.5325 0.00137016 24.6715C0.0603915 26.939 1.0054 29.0932 2.63382 30.6723C4.26225 32.2513 6.44449 33.1296 8.71276 33.1188L39.6903 33.1273Z" fill="#691EE2"/>
<path opacity="0.32" d="M39.6903 33.1273C41.4045 33.137 43.0735 32.5776 44.4357 31.5369C45.7979 30.4962 46.7762 29.033 47.2175 27.3765C47.7028 25.528 47.7116 23.5865 47.2429 21.7337C46.7743 19.8808 45.8436 18.177 44.5378 16.7814C43.232 15.3859 41.5937 14.3441 39.7761 13.7535C37.9584 13.1629 36.0207 13.0427 34.144 13.4042C33.2861 10.5631 31.4661 8.10908 28.9963 6.46342C26.5264 4.81776 23.5608 4.08304 20.6084 4.38533C17.656 4.68763 14.9008 6.0081 12.8157 8.12013C10.7306 10.2322 9.44568 13.0041 9.18133 15.9601C8.97686 15.9601 8.77665 15.9346 8.57218 15.9346C7.43302 15.9361 6.30556 16.1643 5.25551 16.606C4.20546 17.0477 3.25385 17.694 2.45611 18.5072C1.65837 19.3204 1.03049 20.2842 0.609043 21.3426C0.1876 22.4009 -0.0189831 23.5325 0.00137016 24.6715C0.0603915 26.939 1.0054 29.0932 2.63382 30.6723C4.26225 32.2513 6.44449 33.1296 8.71276 33.1188L39.6903 33.1273Z" fill="url(#paint0_radial_2226_2184)"/>
<path opacity="0.35" d="M39.6903 33.1273C41.4045 33.137 43.0735 32.5776 44.4357 31.5369C45.7979 30.4962 46.7762 29.033 47.2175 27.3765C47.7028 25.528 47.7116 23.5865 47.2429 21.7337C46.7743 19.8808 45.8436 18.177 44.5378 16.7814C43.232 15.3859 41.5937 14.3441 39.7761 13.7535C37.9584 13.1629 36.0207 13.0427 34.144 13.4042C33.2861 10.5631 31.4661 8.10908 28.9963 6.46342C26.5264 4.81776 23.5608 4.08304 20.6084 4.38533C17.656 4.68763 14.9008 6.0081 12.8157 8.12013C10.7306 10.2322 9.44568 13.0041 9.18133 15.9601C8.97686 15.9601 8.77665 15.9346 8.57218 15.9346C7.43302 15.9361 6.30556 16.1643 5.25551 16.606C4.20546 17.0477 3.25385 17.694 2.45611 18.5072C1.65837 19.3204 1.03049 20.2842 0.609043 21.3426C0.1876 22.4009 -0.0189831 23.5325 0.00137016 24.6715C0.0603915 26.939 1.0054 29.0932 2.63382 30.6723C4.26225 32.2513 6.44449 33.1296 8.71276 33.1188L39.6903 33.1273Z" fill="url(#paint1_radial_2226_2184)"/>
<path opacity="0.5" d="M21.9051 4.89296C24.5212 4.90808 27.064 5.75848 29.1628 7.32015C31.2617 8.88183 32.8068 11.0731 33.5729 13.5745L33.7262 14.09L34.2544 13.9877C36.0314 13.6526 37.8643 13.7717 39.5831 14.3339C41.3018 14.8961 42.8507 15.8832 44.0862 17.2036C45.3217 18.5241 46.2038 20.1352 46.6506 21.8875C47.0974 23.6397 47.0945 25.4765 46.6421 27.2273C46.2358 28.7573 45.3322 30.1086 44.0736 31.0688C42.815 32.0289 41.2729 32.5432 39.69 32.5308H8.7124C6.6058 32.5317 4.58186 31.7112 3.07055 30.2437C1.55924 28.7761 0.679676 26.7771 0.618695 24.6714C0.599471 23.6115 0.791438 22.5583 1.18342 21.5733C1.57539 20.5883 2.15954 19.6912 2.90178 18.9343C3.64403 18.1774 4.52954 17.5758 5.50668 17.1646C6.48381 16.7534 7.53299 16.5409 8.59311 16.5394C8.75925 16.5394 8.94245 16.5394 9.15971 16.5607L9.7433 16.6033L9.77736 16.0026C10.0454 12.9682 11.4389 10.1438 13.684 8.08477C15.929 6.02576 18.8631 4.88113 21.9094 4.87592M21.9094 4.27954C18.713 4.28137 15.6334 5.48092 13.278 7.6416C10.9225 9.80227 9.46225 12.7672 9.18524 15.9515C8.98077 15.9515 8.78056 15.926 8.57608 15.926C7.43693 15.9275 6.30946 16.1557 5.25941 16.5974C4.20937 17.0391 3.25773 17.6854 2.45999 18.4986C1.66225 19.3118 1.03437 20.2756 0.612923 21.334C0.19148 22.3923 -0.0150767 23.5239 0.00527656 24.6629C0.0642979 26.9304 1.0093 29.0846 2.63773 30.6637C4.26615 32.2427 6.44839 33.121 8.71667 33.1102H39.6942C41.4084 33.1199 43.0774 32.5605 44.4396 31.5198C45.8018 30.4791 46.7802 29.0158 47.2214 27.3594C47.7067 25.5108 47.7155 23.5694 47.2468 21.7165C46.7782 19.8637 45.8475 18.1599 44.5417 16.7643C43.236 15.3687 41.5977 14.327 39.78 13.7364C37.9623 13.1458 36.0246 13.0256 34.1479 13.3871C33.3583 10.7549 31.7413 8.44741 29.5367 6.80683C27.3321 5.16624 24.6574 4.27999 21.9094 4.27954Z" fill="url(#paint2_linear_2226_2184)"/>
<path opacity="0.31" d="M24.1975 29.055L29.5479 24.9868C29.6209 24.9139 29.6688 24.8196 29.6846 24.7177C29.7005 24.6157 29.6834 24.5114 29.636 24.4197C29.5885 24.3281 29.5131 24.254 29.4207 24.2081C29.3282 24.1623 29.2236 24.147 29.1219 24.1647H28.7556V14.9847C28.7468 14.8464 28.6836 14.7172 28.5798 14.6254C28.476 14.5336 28.3401 14.4866 28.2018 14.4948H19.6821C19.5438 14.4866 19.4078 14.5336 19.3041 14.6254C19.2003 14.7172 19.1371 14.8464 19.1283 14.9847V24.1647H18.4425C18.3408 24.147 18.2362 24.1623 18.1437 24.2081C18.0513 24.254 17.9759 24.3281 17.9285 24.4197C17.881 24.5114 17.8639 24.6157 17.8798 24.7177C17.8956 24.8196 17.9435 24.9139 18.0165 24.9868L23.3669 29.055C23.4792 29.161 23.6278 29.2201 23.7822 29.2201C23.9367 29.2201 24.0852 29.161 24.1975 29.055Z" fill="white"/>
<defs>
<radialGradient id="paint0_radial_2226_2184" cx="0" cy="0" r="1" gradientUnits="userSpaceOnUse" gradientTransform="translate(20.2772 4.19018) scale(25.3961 25.3961)">
<stop stop-color="white"/>
<stop offset="0.07" stop-color="white" stop-opacity="0.89"/>
<stop offset="0.27" stop-color="white" stop-opacity="0.63"/>
<stop offset="0.46" stop-color="white" stop-opacity="0.4"/>
<stop offset="0.63" stop-color="white" stop-opacity="0.23"/>
<stop offset="0.78" stop-color="white" stop-opacity="0.1"/>
<stop offset="0.91" stop-color="white" stop-opacity="0.03"/>
<stop offset="1" stop-color="white" stop-opacity="0"/>
</radialGradient>
<radialGradient id="paint1_radial_2226_2184" cx="0" cy="0" r="1" gradientUnits="userSpaceOnUse" gradientTransform="translate(23.2565 23.5102) rotate(-4.57392) scale(23.1151 19.4157)">
<stop stop-color="white" stop-opacity="0"/>
<stop offset="0.37" stop-color="white" stop-opacity="0.01"/>
<stop offset="0.51" stop-color="white" stop-opacity="0.03"/>
<stop offset="0.6" stop-color="white" stop-opacity="0.08"/>
<stop offset="0.68" stop-color="white" stop-opacity="0.15"/>
<stop offset="0.75" stop-color="white" stop-opacity="0.23"/>
<stop offset="0.8" stop-color="white" stop-opacity="0.34"/>
<stop offset="0.86" stop-color="white" stop-opacity="0.47"/>
<stop offset="0.91" stop-color="white" stop-opacity="0.61"/>
<stop offset="0.95" stop-color="white" stop-opacity="0.78"/>
<stop offset="0.99" stop-color="white" stop-opacity="0.96"/>
<stop offset="1" stop-color="white"/>
</radialGradient>
<linearGradient id="paint2_linear_2226_2184" x1="14.7869" y1="8.96537" x2="33.1597" y2="39.9387" gradientUnits="userSpaceOnUse">
<stop stop-color="white" stop-opacity="0"/>
<stop offset="0.03" stop-color="white" stop-opacity="0.12"/>
<stop offset="0.09" stop-color="white" stop-opacity="0.32"/>
<stop offset="0.15" stop-color="white" stop-opacity="0.5"/>
<stop offset="0.22" stop-color="white" stop-opacity="0.66"/>
<stop offset="0.28" stop-color="white" stop-opacity="0.78"/>
<stop offset="0.35" stop-color="white" stop-opacity="0.88"/>
<stop offset="0.42" stop-color="white" stop-opacity="0.95"/>
<stop offset="0.49" stop-color="white" stop-opacity="0.99"/>
<stop offset="0.58" stop-color="white"/>
<stop offset="0.59" stop-color="white" stop-opacity="0.96"/>
<stop offset="0.6" stop-color="white" stop-opacity="0.78"/>
<stop offset="0.62" stop-color="white" stop-opacity="0.61"/>
<stop offset="0.64" stop-color="white" stop-opacity="0.47"/>
<stop offset="0.66" stop-color="white" stop-opacity="0.34"/>
<stop offset="0.69" stop-color="white" stop-opacity="0.23"/>
<stop offset="0.72" stop-color="white" stop-opacity="0.15"/>
<stop offset="0.75" stop-color="white" stop-opacity="0.08"/>
<stop offset="0.79" stop-color="white" stop-opacity="0.03"/>
<stop offset="0.84" stop-color="white" stop-opacity="0.01"/>
<stop offset="1" stop-color="white" stop-opacity="0"/>
</linearGradient>
</defs>
</svg>
