<svg width="50" height="40" viewBox="0 0 50 40" fill="none" xmlns="http://www.w3.org/2000/svg">
<path opacity="0.15" d="M49.2194 16.1944C49.2194 7.872 41.3054 1.12427 31.5423 1.12427C21.7793 1.12427 13.8652 7.872 13.8652 16.1944C13.8652 20.9677 16.4747 25.2177 20.5197 27.9819C19.4386 29.2462 18.22 30.3759 16.8883 31.3484C16.7191 31.47 16.5908 31.6436 16.5216 31.8448C16.4523 32.046 16.4455 32.2647 16.5022 32.4701C16.5589 32.6755 16.6761 32.8573 16.8375 32.9899C16.9988 33.1225 17.1961 33.1993 17.4016 33.2093C35.0359 33.2093 49.2194 27.8635 49.2194 16.1944Z" fill="#8C8D92"/>
<path d="M0.0332031 18.8104C0.0332031 8.68633 9.65367 0.482422 21.5271 0.482422C33.4006 0.482422 43.0258 8.6962 43.0258 18.8104C43.0258 24.6153 39.8602 29.7884 34.9168 33.1253C36.2337 34.663 37.717 36.0378 39.3373 37.2223C39.5435 37.3704 39.6998 37.582 39.784 37.8272C39.8683 38.0724 39.8764 38.3389 39.8071 38.5891C39.7378 38.8394 39.5946 39.0607 39.3978 39.222C39.2009 39.3832 38.9603 39.4763 38.7099 39.488C17.2825 39.5423 0.0332031 33.0167 0.0332031 18.8104Z" fill="#691EE2"/>
<path opacity="0.32" d="M0.0332031 18.8104C0.0332031 8.68633 9.65367 0.482422 21.5271 0.482422C33.4006 0.482422 43.0258 8.6962 43.0258 18.8104C43.0258 24.6153 39.8602 29.7884 34.9168 33.1253C36.2337 34.663 37.717 36.0378 39.3373 37.2223C39.5435 37.3704 39.6998 37.582 39.784 37.8272C39.8683 38.0724 39.8764 38.3389 39.8071 38.5891C39.7378 38.8394 39.5946 39.0607 39.3978 39.222C39.2009 39.3832 38.9603 39.4763 38.7099 39.488C17.2825 39.5423 0.0332031 33.0167 0.0332031 18.8104Z" fill="url(#paint0_radial_2226_2178)"/>
<path opacity="0.35" d="M0.0332031 18.8104C0.0332031 8.68633 9.65367 0.482422 21.5271 0.482422C33.4006 0.482422 43.0258 8.6962 43.0258 18.8104C43.0258 24.6153 39.8602 29.7884 34.9168 33.1253C36.2337 34.663 37.717 36.0378 39.3373 37.2223C39.5435 37.3704 39.6998 37.582 39.784 37.8272C39.8683 38.0724 39.8764 38.3389 39.8071 38.5891C39.7378 38.8394 39.5946 39.0607 39.3978 39.222C39.2009 39.3832 38.9603 39.4763 38.7099 39.488C17.2825 39.5423 0.0332031 33.0167 0.0332031 18.8104Z" fill="url(#paint1_radial_2226_2178)"/>
<path opacity="0.5" d="M21.5272 1.19806C33.0061 1.19806 42.3461 9.09592 42.3461 18.8202C42.3461 24.1858 39.4942 29.1861 34.5462 32.5625L33.8807 33.0166L34.4178 33.6287C35.7665 35.2109 37.2901 36.6225 38.9571 37.8343C39.0488 37.9031 39.1168 38.0007 39.1511 38.1127C39.1853 38.2246 39.1839 38.3451 39.1472 38.4562C39.1194 38.5556 39.0623 38.6434 38.9838 38.7071C38.9053 38.7709 38.8095 38.8075 38.7099 38.8116C27.6635 38.8116 18.2712 37.0988 11.6168 33.8508C4.37769 30.3313 0.68446 25.2717 0.68446 18.8202C0.68446 9.10086 10.0197 1.19806 21.4987 1.19806M21.4987 0.492188C9.61571 0.492188 0 8.69609 0 18.8202C0 33.0166 17.2541 39.5175 38.6814 39.5175C38.9319 39.5058 39.1725 39.4127 39.3693 39.2515C39.5662 39.0902 39.7093 38.8689 39.7786 38.6186C39.8479 38.3684 39.8399 38.1019 39.7556 37.8567C39.6713 37.6115 39.5151 37.3999 39.3089 37.2518C37.6885 36.0673 36.2052 34.6925 34.8884 33.1548C39.8317 29.7982 42.9973 24.6251 42.9973 18.8399C42.9973 8.71584 33.3721 0.511933 21.4987 0.511933V0.492188Z" fill="url(#paint2_linear_2226_2178)"/>
<path opacity="0.31" d="M13.9315 20.9727C14.9238 20.9727 15.7282 20.1373 15.7282 19.1068C15.7282 18.0763 14.9238 17.241 13.9315 17.241C12.9392 17.241 12.1348 18.0763 12.1348 19.1068C12.1348 20.1373 12.9392 20.9727 13.9315 20.9727Z" fill="white"/>
<path opacity="0.31" d="M21.5272 20.9727C22.5195 20.9727 23.3239 20.1373 23.3239 19.1068C23.3239 18.0763 22.5195 17.241 21.5272 17.241C20.5349 17.241 19.7305 18.0763 19.7305 19.1068C19.7305 20.1373 20.5349 20.9727 21.5272 20.9727Z" fill="white"/>
<path opacity="0.31" d="M29.1278 20.9727C30.1201 20.9727 30.9245 20.1373 30.9245 19.1068C30.9245 18.0763 30.1201 17.241 29.1278 17.241C28.1355 17.241 27.3311 18.0763 27.3311 19.1068C27.3311 20.1373 28.1355 20.9727 29.1278 20.9727Z" fill="white"/>
<defs>
<radialGradient id="paint0_radial_2226_2178" cx="0" cy="0" r="1" gradientUnits="userSpaceOnUse" gradientTransform="translate(22.6821 16.4559) scale(27.6968 28.763)">
<stop stop-color="white"/>
<stop offset="0.07" stop-color="white" stop-opacity="0.89"/>
<stop offset="0.27" stop-color="white" stop-opacity="0.63"/>
<stop offset="0.46" stop-color="white" stop-opacity="0.4"/>
<stop offset="0.63" stop-color="white" stop-opacity="0.23"/>
<stop offset="0.78" stop-color="white" stop-opacity="0.1"/>
<stop offset="0.91" stop-color="white" stop-opacity="0.03"/>
<stop offset="1" stop-color="white" stop-opacity="0"/>
</radialGradient>
<radialGradient id="paint1_radial_2226_2178" cx="0" cy="0" r="1" gradientUnits="userSpaceOnUse" gradientTransform="translate(21.1421 20.9231) scale(21.3846 22.2078)">
<stop stop-color="white" stop-opacity="0"/>
<stop offset="0.37" stop-color="white" stop-opacity="0.01"/>
<stop offset="0.51" stop-color="white" stop-opacity="0.03"/>
<stop offset="0.6" stop-color="white" stop-opacity="0.08"/>
<stop offset="0.68" stop-color="white" stop-opacity="0.15"/>
<stop offset="0.75" stop-color="white" stop-opacity="0.23"/>
<stop offset="0.8" stop-color="white" stop-opacity="0.34"/>
<stop offset="0.86" stop-color="white" stop-opacity="0.47"/>
<stop offset="0.91" stop-color="white" stop-opacity="0.61"/>
<stop offset="0.95" stop-color="white" stop-opacity="0.78"/>
<stop offset="0.99" stop-color="white" stop-opacity="0.96"/>
<stop offset="1" stop-color="white"/>
</radialGradient>
<linearGradient id="paint2_linear_2226_2178" x1="13.6749" y1="6.18359" x2="30.4731" y2="31.144" gradientUnits="userSpaceOnUse">
<stop stop-color="white" stop-opacity="0"/>
<stop offset="0.03" stop-color="white" stop-opacity="0.12"/>
<stop offset="0.09" stop-color="white" stop-opacity="0.32"/>
<stop offset="0.15" stop-color="white" stop-opacity="0.5"/>
<stop offset="0.22" stop-color="white" stop-opacity="0.66"/>
<stop offset="0.28" stop-color="white" stop-opacity="0.78"/>
<stop offset="0.35" stop-color="white" stop-opacity="0.88"/>
<stop offset="0.42" stop-color="white" stop-opacity="0.95"/>
<stop offset="0.49" stop-color="white" stop-opacity="0.99"/>
<stop offset="0.58" stop-color="white"/>
<stop offset="0.59" stop-color="white" stop-opacity="0.96"/>
<stop offset="0.6" stop-color="white" stop-opacity="0.78"/>
<stop offset="0.62" stop-color="white" stop-opacity="0.61"/>
<stop offset="0.64" stop-color="white" stop-opacity="0.47"/>
<stop offset="0.66" stop-color="white" stop-opacity="0.34"/>
<stop offset="0.69" stop-color="white" stop-opacity="0.23"/>
<stop offset="0.72" stop-color="white" stop-opacity="0.15"/>
<stop offset="0.75" stop-color="white" stop-opacity="0.08"/>
<stop offset="0.79" stop-color="white" stop-opacity="0.03"/>
<stop offset="0.84" stop-color="white" stop-opacity="0.01"/>
<stop offset="1" stop-color="white" stop-opacity="0"/>
</linearGradient>
</defs>
</svg>
